<?xml version="1.0" encoding="utf-8"?>
<!-- Generator: Adobe Illustrator 28.3.0, SVG Export Plug-In . SVG Version: 6.00 Build 0)  -->
<svg version="1.1" id="katman_1" xmlns="http://www.w3.org/2000/svg" xmlns:xlink="http://www.w3.org/1999/xlink" x="0px" y="0px"
	 viewBox="0 0 1842.7 221.7" style="enable-background:new 0 0 1842.7 221.7;" xml:space="preserve">
<style type="text/css">
	.st0{fill:#FFFFFF;}
	.st1{fill-rule:evenodd;clip-rule:evenodd;fill:#FFFFFF;}
</style>
<path id="OASISFOUNDATION" class="st0" d="M289.6,105.6c0,29.6,20.4,52.5,49.1,52.5s49.1-23,49.1-52.5s-20.6-52.5-49.2-52.5
	C309.9,53.1,289.6,76,289.6,105.6z M308.2,105.6c0-18.6,12.6-32.8,30.3-32.8s30.3,14.2,30.3,32.8s-12.5,32.8-30.3,32.8
	C320.9,138.4,308.2,124.1,308.2,105.6z M471.5,156.5h19L459.4,54.7h-19.2l-31.3,101.8h18.5l4.4-14.6H467L471.5,156.5z M437.8,122.7
	l11.7-38.7l11.7,38.7H437.8z M565.3,84.3h18.6c0-18.6-14.4-31.2-34-31.2c-19.9,0-33.8,13.6-33.8,32.1c0,13,6.7,23.1,19.3,26.9
	c8.3,2.4,18.1,1.8,24.2,4l0.4,0.1c4.1,1.4,6.9,5.3,6.7,9.7c0,7.3-5.9,13.1-15.9,13.1c-9.8,0-17.1-5.4-17.1-13.6h-18.5
	c0,19.2,15.2,32.5,35.4,32.5c20.9,0,34.7-13.9,34.7-33.2c0-13.7-7.5-23.6-19.6-27.5c-9.2-2.9-18.4-1.7-24.5-4
	c-4-1.6-6.6-4.8-6.6-9.1c0-6.9,5.8-12.1,15-12.1C558.8,72.1,565,77,565.3,84.3z M618.1,156.5h18.6V54.6h-18.6V156.5z M719.9,84.3
	h18.6c0-18.6-14.4-31.2-34-31.2c-19.9,0-33.8,13.6-33.8,32.1c0,13,6.7,23.1,19.3,26.9c8.3,2.4,18.1,1.8,24.2,4l0.4,0.1
	c4.1,1.4,6.9,5.3,6.7,9.7c0,7.3-5.9,13.1-15.9,13.1c-9.8,0-17.1-5.4-17.1-13.6h-18.5c0,19.2,15.2,32.5,35.4,32.5
	c20.9,0,34.7-13.9,34.7-33.2c0-13.7-7.5-23.6-19.6-27.5c-9.2-2.9-18.4-1.7-24.5-4c-4-1.6-6.6-4.8-6.6-9.1c0-6.9,5.8-12.1,15-12.1
	C713.4,72.1,719.7,77,719.9,84.3z M827.9,156.5h18.6V115H877V95.4h-30.6V74.1h55.3V54.6h-73.9L827.9,156.5z M925.6,105.6
	c0,29.6,20.4,52.5,49.1,52.5s49.2-22.9,49.2-52.5s-20.7-52.5-49.2-52.5C946.2,53.1,925.6,76,925.6,105.6L925.6,105.6z M944.2,105.6
	c0-18.6,12.6-32.8,30.3-32.8s30.3,14.2,30.3,32.8s-12.5,32.8-30.3,32.8C956.9,138.4,944.2,124.1,944.2,105.6L944.2,105.6z
	 M1132.5,54.6H1114v62.6c0,11.9-8.1,21-19.5,21c-11.4,0-19.6-9.2-19.6-21V54.6h-18.6v63.5c0,22.5,15.9,39.9,38.2,39.9
	c21.5,0,37.9-17,37.9-39.9L1132.5,54.6z M1227.6,54.6v66.6l-39.8-66.6h-18.5v101.8h18.5V89.9l39.8,66.6h18.5V54.6H1227.6z
	 M1315.3,54.6h-31.8v101.8h31.8c27.7,0,47.6-21.9,47.6-50.8S1343,54.6,1315.3,54.6z M1302.1,74.1h13.1c17,0,29.1,13.7,29.1,31.6
	s-12.1,31.2-29.1,31.2h-13.1V74.1z M1446.7,156.5h19l-31.1-101.8h-19.2l-31.3,101.8h18.5l4.4-14.6h35.2L1446.7,156.5z M1412.8,122.7
	l11.7-38.7l11.7,38.7H1412.8z M1505.6,156.5h18.6V74.1h27.7V54.6h-73.9v19.6h27.7L1505.6,156.5z M1582.5,156.5h18.6V54.6h-18.6
	V156.5z M1634.4,105.6c0,29.6,20.4,52.5,49.1,52.5s49.2-22.9,49.2-52.5s-20.6-52.5-49.2-52.5S1634.4,76,1634.4,105.6z M1653,105.6
	c0-18.6,12.6-32.8,30.3-32.8c17.7,0,30.3,14.2,30.3,32.8s-12.5,32.8-30.3,32.8C1665.7,138.4,1653,124.1,1653,105.6z M1824.2,54.6
	h18.5v101.8h-18.5l-39.8-66.6v66.6H1766V54.6h18.5l39.8,66.6V54.6z"/>
<path id="Fill-1" class="st1" d="M197.6,43.6c-16.6-21.3-41.1-34.7-68-34.7C77.3,8.8,39.1,57.4,39.1,110c0,36.7,24.3,64.1,51.4,64.1
	c2.5,0,5-0.2,7.5-0.7c-18.1-13.2-29.7-37.3-29.7-63.4c0-41.6,28.1-74,61.3-74c36.2,0,61.3,36,61.3,74c-0.1,28.1-10.2,56.2-27.8,76.7
	c-15.4,18-35.4,29.5-57.3,33c0,0,1.8,0.1,4.2,0.1c60.7-0.1,109.9-49.3,109.9-110.1C219.8,85.9,212,62.6,197.6,43.6z M180.8,110
	c0-36.7-24.3-64.1-51.4-64.1c-2.5,0-5,0.2-7.5,0.7c18.1,13.2,29.7,37.2,29.7,63.4c0,41.6-28.1,74-61.3,74c-36.2,0-61.3-36-61.3-74
	c0.1-28.1,10.2-56.2,27.8-76.7C72.3,15.2,92.2,3.8,114.1,0.1c0,0-1.8-0.1-4.2-0.1C49.2,0.1-0.1,49.5,0,110.3
	c0,23.9,7.8,47.1,22.2,66.1c16.6,21.3,41.1,34.7,68.2,34.7C142.7,211.2,180.8,162.6,180.8,110z"/>
</svg>
