<svg id="katman_1" data-name="katman 1" xmlns="http://www.w3.org/2000/svg" viewBox="0 0 1506 179.7"><defs><style>.cls-1,.cls-2{fill:#fff;}.cls-2{fill-rule:evenodd;}</style></defs><title>oasis-logo-white (1)</title><path id="OASISFOUNDATION" class="cls-1" d="M236.7,87.3c0,24.2,16.7,42.9,40.1,42.9s40.1-18.8,40.1-42.9-16.8-42.9-40.2-42.9S236.7,63.1,236.7,87.3Zm15.2,0c0-15.2,10.3-26.8,24.8-26.8s24.8,11.6,24.8,26.8-10.2,26.8-24.8,26.8C262.3,114.1,251.9,102.4,251.9,87.3Zm133.5,41.6h15.5L375.5,45.7H359.8l-25.6,83.2h15.1l3.6-11.9h28.8Zm-27.6-27.6,9.6-31.6,9.6,31.6ZM462,69.9h15.2c0-15.2-11.8-25.5-27.8-25.5-16.3,0-27.6,11.1-27.6,26.2,0,10.6,5.5,18.9,15.8,22,6.8,2,14.8,1.5,19.8,3.3l.3.1a8,8,0,0,1,5.5,7.9c0,6-4.8,10.7-13,10.7-8,0-14-4.4-14-11.1H421.1c0,15.7,12.4,26.6,28.9,26.6,17.1,0,28.4-11.4,28.4-27.1,0-11.2-6.1-19.3-16-22.5-7.5-2.4-15-1.4-20-3.3-3.3-1.3-5.4-3.9-5.4-7.4,0-5.6,4.7-9.9,12.3-9.9C456.7,59.9,461.8,63.9,462,69.9Zm43.2,59h15.2V45.6H505.2Zm83.2-59h15.2c0-15.2-11.8-25.5-27.8-25.5-16.3,0-27.6,11.1-27.6,26.2,0,10.6,5.5,18.9,15.8,22,6.8,2,14.8,1.5,19.8,3.3l.3.1a8,8,0,0,1,5.5,7.9c0,6-4.8,10.7-13,10.7-8,0-14-4.4-14-11.1H547.5c0,15.7,12.4,26.6,28.9,26.6,17.1,0,28.4-11.4,28.4-27.1,0-11.2-6.1-19.3-16-22.5-7.5-2.4-15-1.4-20-3.3-3.3-1.3-5.4-3.9-5.4-7.4,0-5.6,4.7-9.9,12.3-9.9C583.1,59.9,588.2,63.9,588.4,69.9Zm88.2,59h15.2V95h25V79h-25V61.6H737v-16H676.6Zm79.9-41.6c0,24.2,16.7,42.9,40.1,42.9s40.2-18.7,40.2-42.9-16.9-42.9-40.2-42.9S756.5,63.1,756.5,87.3Zm15.2,0c0-15.2,10.3-26.8,24.8-26.8s24.8,11.6,24.8,26.8-10.2,26.8-24.8,26.8C782.1,114.1,771.7,102.4,771.7,87.3ZM925.6,45.6H910.5V96.8c0,9.7-6.6,17.2-15.9,17.2s-16-7.5-16-17.2V45.6H863.4V97.5c0,18.4,13,32.6,31.2,32.6,17.6,0,31-13.9,31-32.6Zm77.7,0V100L970.8,45.6H955.7v83.2h15.1V74.5l32.5,54.4h15.1V45.6Zm71.7,0h-26v83.2h26c22.6,0,38.9-17.9,38.9-41.5S1097.6,45.6,1075,45.6Zm-10.8,16h10.7c13.9,0,23.8,11.2,23.8,25.8s-9.9,25.5-23.8,25.5h-10.7Zm118.2,67.3h15.5l-25.4-83.2h-15.7l-25.6,83.2h15.1l3.6-11.9h28.8Zm-27.7-27.6,9.6-31.6,9.6,31.6Zm75.8,27.6h15.2V61.6h22.6v-16h-60.4v16h22.6Zm62.9,0h15.2V45.6h-15.2Zm42.4-41.6c0,24.2,16.7,42.9,40.1,42.9s40.2-18.7,40.2-42.9-16.8-42.9-40.2-42.9S1335.8,63.1,1335.8,87.3Zm15.2,0c0-15.2,10.3-26.8,24.8-26.8s24.8,11.6,24.8,26.8-10.2,26.8-24.8,26.8C1361.4,114.1,1351,102.4,1351,87.3Zm139.9-41.7H1506v83.2h-15.1l-32.5-54.4v54.4h-15.1V45.6h15.1l32.5,54.4Z" transform="translate(0 -1)"/><path id="Fill-1" class="cls-2" d="M161.5,36.6C147.9,19.2,127.9,8.2,105.9,8.2,63.2,8.2,32,47.9,32,90.9c0,30,19.9,52.4,42,52.4a30.78,30.78,0,0,0,6.1-.6c-14.8-10.8-24.3-30.5-24.3-51.8,0-34,23-60.5,50.1-60.5,29.6,0,50.1,29.4,50.1,60.5-.1,23-8.3,45.9-22.7,62.7-12.6,14.7-28.9,24.1-46.8,27,0,0,1.5.1,3.4.1A89.88,89.88,0,0,0,161.5,36.6ZM147.8,90.9c0-30-19.9-52.4-42-52.4a30.78,30.78,0,0,0-6.1.6C114.5,49.9,124,69.5,124,90.9c0,34-23,60.5-50.1,60.5-29.6,0-50.1-29.4-50.1-60.5.1-23,8.3-45.9,22.7-62.7C59.1,13.4,75.4,4.1,93.3,1.1c0,0-1.5-.1-3.4-.1A90,90,0,0,0,18.2,145.2c13.6,17.4,33.6,28.4,55.7,28.4,42.7,0,73.9-39.7,73.9-82.7Z" transform="translate(0 -1)"/></svg>