<?xml version="1.0" encoding="utf-8"?>
<!-- Generator: Adobe Illustrator 27.8.1, SVG Export Plug-In . SVG Version: 6.00 Build 0)  -->
<svg version="1.1" id="katman_1" xmlns="http://www.w3.org/2000/svg" xmlns:xlink="http://www.w3.org/1999/xlink" x="0px" y="0px"
	 viewBox="0 0 760 150" style="enable-background:new 0 0 760 150;" xml:space="preserve">
<style type="text/css">
	.st0{fill:#FFFFFF;}
</style>
<path class="st0" d="M266,107.3c-4.9,0-9.3-0.8-13.3-2.5c-3.9-1.7-7-4.1-9.2-7.2c-2.3-3.1-3.4-6.9-3.5-11.1h15.1
	c0.2,2.9,1.2,5.1,3,6.8c1.9,1.7,4.4,2.5,7.6,2.5c3.3,0,5.9-0.8,7.7-2.3c1.9-1.6,2.8-3.7,2.8-6.2c0-2.1-0.6-3.8-1.9-5.1
	c-1.3-1.3-2.9-2.4-4.8-3.1c-1.9-0.8-4.5-1.7-7.8-2.6c-4.6-1.3-8.3-2.6-11.1-3.9c-2.8-1.3-5.3-3.3-7.3-5.9c-2-2.7-3-6.2-3-10.6
	c0-4.1,1-7.8,3.1-10.8c2.1-3.1,5-5.4,8.7-7c3.7-1.7,8-2.5,12.9-2.5c7.2,0,13.1,1.8,17.6,5.3c4.6,3.5,7.1,8.4,7.5,14.6h-15.5
	c-0.1-2.4-1.2-4.4-3.1-5.9c-1.9-1.6-4.4-2.4-7.5-2.4c-2.7,0-5,0.7-6.6,2.1c-1.6,1.4-2.4,3.4-2.4,6.1c0,1.9,0.6,3.4,1.8,4.7
	c1.3,1.2,2.8,2.2,4.6,3c1.9,0.7,4.5,1.6,7.8,2.6c4.6,1.3,8.3,2.7,11.1,4c2.9,1.3,5.4,3.3,7.4,6c2.1,2.7,3.1,6.2,3.1,10.5
	c0,3.7-1,7.2-2.9,10.4c-1.9,3.2-4.8,5.8-8.5,7.7C275.6,106.4,271.2,107.3,266,107.3z"/>
<path class="st0" d="M310.1,44.4c-2.5,0-4.6-0.8-6.2-2.3c-1.6-1.6-2.4-3.6-2.4-5.9c0-2.3,0.8-4.3,2.4-5.8c1.7-1.6,3.7-2.4,6.2-2.4
	c2.5,0,4.5,0.8,6.1,2.4c1.7,1.5,2.5,3.5,2.5,5.8c0,2.3-0.8,4.3-2.5,5.9C314.6,43.7,312.6,44.4,310.1,44.4z M317.1,51.1v55.6H303
	V51.1H317.1z"/>
<path class="st0" d="M352.7,50.2c4.2,0,7.8,0.8,10.9,2.5c3.1,1.6,5.6,3.7,7.4,6.3v-7.9h14.2v56c0,5.1-1,9.7-3.1,13.7
	c-2.1,4.1-5.2,7.3-9.3,9.6c-4.1,2.4-9.2,3.6-15.1,3.6c-7.9,0-14.4-1.8-19.5-5.5c-5-3.7-7.9-8.7-8.5-15h14c0.7,2.5,2.3,4.5,4.7,6
	c2.5,1.5,5.5,2.3,8.9,2.3c4.1,0,7.4-1.2,9.9-3.7c2.5-2.4,3.8-6.1,3.8-11v-8.6c-1.8,2.6-4.3,4.8-7.5,6.5c-3.1,1.7-6.8,2.6-10.8,2.6
	c-4.7,0-9-1.2-12.9-3.6s-7-5.8-9.2-10.1c-2.2-4.4-3.3-9.5-3.3-15.1c0-5.6,1.1-10.6,3.3-14.9c2.3-4.3,5.3-7.7,9.1-10
	C343.7,51.3,348,50.2,352.7,50.2z M371.1,78.8c0-3.4-0.7-6.3-2-8.7c-1.3-2.5-3.1-4.3-5.4-5.6c-2.3-1.3-4.7-2-7.3-2
	c-2.6,0-5,0.6-7.2,1.9c-2.2,1.3-4,3.1-5.4,5.6c-1.3,2.4-2,5.3-2,8.6c0,3.3,0.7,6.3,2,8.8c1.4,2.5,3.2,4.4,5.4,5.7
	c2.3,1.3,4.7,2,7.2,2c2.6,0,5.1-0.6,7.3-1.9c2.3-1.3,4.1-3.2,5.4-5.6C370.4,85.2,371.1,82.3,371.1,78.8z"/>
<path class="st0" d="M429.8,50.3c6.6,0,12,2.1,16.1,6.3c4.1,4.1,6.1,10,6.1,17.4v32.6H438V75.9c0-4.4-1.1-7.8-3.3-10.1
	c-2.2-2.4-5.2-3.6-9-3.6c-3.9,0-7,1.2-9.2,3.6c-2.2,2.3-3.3,5.7-3.3,10.1v30.7H399V51.1h14.1V58c1.9-2.4,4.2-4.3,7.1-5.6
	C423.1,51,426.3,50.3,429.8,50.3z"/>
<path class="st0" d="M461.8,78.6c0-5.6,1.1-10.6,3.3-14.9c2.3-4.3,5.3-7.7,9.1-10c3.9-2.3,8.2-3.5,13-3.5c4.1,0,7.8,0.8,10.8,2.5
	c3.1,1.7,5.7,3.8,7.5,6.3v-7.9h14.2v55.6h-14.2v-8.1c-1.8,2.6-4.3,4.8-7.5,6.5c-3.1,1.7-6.8,2.5-10.9,2.5c-4.7,0-9-1.2-12.9-3.6
	c-3.8-2.4-6.9-5.8-9.1-10.1C462.9,89.4,461.8,84.3,461.8,78.6z M505.6,78.8c0-3.4-0.7-6.3-2-8.7c-1.3-2.5-3.1-4.3-5.4-5.6
	c-2.3-1.3-4.7-2-7.3-2c-2.6,0-5,0.6-7.2,1.9c-2.2,1.3-4,3.1-5.4,5.6c-1.3,2.4-2,5.3-2,8.6c0,3.3,0.7,6.3,2,8.8
	c1.4,2.5,3.2,4.4,5.4,5.7c2.3,1.3,4.7,2,7.2,2c2.6,0,5.1-0.6,7.3-1.9c2.3-1.3,4.1-3.2,5.4-5.6C504.9,85.2,505.6,82.3,505.6,78.8z"/>
<path class="st0" d="M547.5,32.4v74.2h-14.1V32.4H547.5z"/>
<path class="st0" d="M612.5,58.3c0,3.7-0.9,7.3-2.7,10.5c-1.7,3.3-4.5,5.9-8.3,7.9c-3.7,2-8.5,3-14.3,3h-11.7v26.9h-14.1v-70h25.8
	c5.4,0,10,0.9,13.9,2.8c3.8,1.9,6.7,4.4,8.5,7.7C611.5,50.4,612.5,54.1,612.5,58.3z M586.6,68.4c3.9,0,6.8-0.9,8.6-2.6
	c1.9-1.8,2.8-4.3,2.8-7.5c0-6.8-3.8-10.2-11.4-10.2h-11.1v20.4H586.6z"/>
<path class="st0" d="M636.5,32.4v74.2h-14.1V32.4H636.5z"/>
<path class="st0" d="M703,51.1v55.6h-14.2v-7c-1.8,2.4-4.2,4.3-7.1,5.7c-2.9,1.3-6,2-9.4,2c-4.4,0-8.2-0.9-11.5-2.7
	c-3.3-1.9-6-4.6-7.9-8.1c-1.9-3.6-2.8-7.9-2.8-12.8V51.1H664v30.6c0,4.4,1.1,7.8,3.3,10.2c2.2,2.3,5.2,3.5,9,3.5
	c3.9,0,6.9-1.2,9.1-3.5c2.2-2.4,3.3-5.8,3.3-10.2V51.1H703z"/>
<path class="st0" d="M738.1,107.5c-4.6,0-8.6-0.8-12.2-2.4c-3.6-1.7-6.5-3.9-8.6-6.7c-2.1-2.8-3.2-5.9-3.4-9.3H728
	c0.3,2.1,1.3,3.9,3.1,5.3c1.9,1.4,4.2,2.1,6.9,2.1c2.7,0,4.8-0.5,6.2-1.6c1.5-1.1,2.3-2.4,2.3-4.1c0-1.8-0.9-3.1-2.8-4
	c-1.8-0.9-4.7-1.9-8.7-3c-4.1-1-7.6-2-10.2-3.1c-2.6-1.1-4.9-2.7-6.8-4.9c-1.9-2.2-2.8-5.2-2.8-8.9c0-3.1,0.9-5.9,2.6-8.4
	c1.8-2.5,4.4-4.5,7.6-6c3.3-1.5,7.3-2.2,11.7-2.2c6.6,0,11.9,1.7,15.9,5c4,3.3,6.1,7.7,6.5,13.3H746c-0.2-2.2-1.1-3.9-2.8-5.2
	c-1.6-1.3-3.8-2-6.5-2c-2.5,0-4.5,0.5-5.9,1.4c-1.3,0.9-2,2.2-2,3.9c0,1.9,0.9,3.3,2.8,4.3c1.9,0.9,4.8,1.9,8.7,2.9
	c4,1,7.3,2,9.9,3.1c2.6,1.1,4.9,2.7,6.7,5c1.9,2.2,2.9,5.1,3,8.8c0,3.2-0.9,6.1-2.7,8.6c-1.7,2.5-4.3,4.5-7.6,6
	C746.4,106.8,742.5,107.5,738.1,107.5z"/>
</svg>
