<?xml version="1.0" encoding="utf-8"?>
<!-- Generator: Adobe Illustrator 27.8.1, SVG Export Plug-In . SVG Version: 6.00 Build 0)  -->
<svg version="1.1" id="katman_1" xmlns="http://www.w3.org/2000/svg" xmlns:xlink="http://www.w3.org/1999/xlink" x="0px" y="0px"
	 viewBox="0 0 760 150" style="enable-background:new 0 0 760 150;" xml:space="preserve">
<style type="text/css">
	.st0{fill:#FFFFFF;}
	.st1{fill:#D6D6D6;}
	.st2{fill:#EDEDED;}
</style>
<g>
	<path class="st0" d="M246.5,91.2c0,4.2-1,7.9-3,11.1c-2,3.2-4.7,5.7-8,7.7c-3.1,1.8-6.6,3.2-10.6,4.1s-8.4,1.4-13.2,1.4
		c-2.6,0-5.3-0.1-8.1-0.2c-2.8-0.2-4.4-0.3-4.9-0.3l-0.5-8.8c0.6,0.1,2.2,0.2,4.8,0.5c2.6,0.2,5.7,0.3,9.3,0.3c2.2,0,5-0.3,8.4-0.9
		s6.1-1.3,7.9-2.2c2.4-1.2,4.3-2.6,5.6-4.3c1.3-1.7,1.9-3.8,1.9-6.4c0-2.7-0.6-5.1-1.9-7c-1.3-1.9-3.4-3.7-6.4-5.5
		c-1.9-1.1-4.4-2.4-7.5-3.9c-3.1-1.4-5.8-2.9-8.3-4.4c-4.2-2.5-7.1-5.3-8.9-8.3c-1.8-3-2.7-6.3-2.7-10c0-3.8,0.8-7,2.4-9.8
		s3.7-5.1,6.3-7.1c2.6-2,5.8-3.4,9.6-4.4c3.8-1,8-1.5,12.6-1.5c2.5,0,5.1,0.1,7.7,0.2c2.6,0.1,4.1,0.2,4.5,0.3l0.9,8.9
		c-0.4,0-1.9-0.2-4.5-0.4c-2.6-0.2-5.8-0.4-9.7-0.4c-2.3,0-4.7,0.3-7.1,0.8c-2.4,0.5-4.6,1.3-6.4,2.4c-1.6,0.9-3,2.2-4.2,3.9
		c-1.1,1.7-1.7,3.6-1.7,5.9c0,2,0.6,3.9,1.8,5.8c1.2,1.9,3.5,3.8,6.8,5.7c1.7,1,3.9,2.2,6.7,3.5c2.8,1.3,5.5,2.8,8.1,4.3
		c4.1,2.4,7.2,5.2,9.2,8.3C245.5,83.6,246.5,87.2,246.5,91.2z"/>
	<path class="st0" d="M325.3,40.9c-0.7,0-3.4,0-8.2-0.1c-4.8,0-12.1-0.1-21.9-0.1c-0.1,8.4-0.1,14.8-0.2,19.1
		c0,4.3-0.1,10.3-0.1,17.7c0,7.2,0,14.5,0.1,21.9c0.1,7.4,0.1,12.4,0.2,14.8h-10.1c0.1-2.5,0.2-7.5,0.2-15c0.1-7.6,0.1-15,0.1-22.2
		c0-7.1,0-12.8,0-17c0-4.2-0.1-10.6-0.2-19.4c-8.7,0-15.8,0-21.2,0c-5.4,0.1-8.4,0.1-8.9,0.1v-8.5c4.2,0,9.3,0,15.4,0.1
		c6,0,12.5,0.1,19.3,0.1c9.9,0,18.2,0,24.8-0.1c6.6,0,10.2-0.1,10.8-0.1V40.9z"/>
	<path class="st0" d="M472.4,109.4l-7.7,6.3c-0.9-0.9-4.1-4.5-9.6-10.6c-5.5-6.2-13.9-15.8-25.3-28.8l0.1-0.6
		c1.6-0.4,3.6-1.3,6.2-2.7c2.6-1.4,4.7-2.9,6.5-4.5c1.5-1.4,2.8-3.1,4-5.2s1.7-4.8,1.7-8.2c0-3.2-0.8-5.9-2.5-8.1
		c-1.7-2.3-3.9-3.9-6.8-5c-2.4-0.9-4.9-1.4-7.5-1.6c-2.6-0.2-5-0.3-7.2-0.3c-1.5,0-2.6,0-3.4,0c-0.8,0-1.3,0-1.7,0
		C419,48,419,54.9,419,60.8c0,5.9,0,10.1,0,12.6c0,5.6,0,13.2,0.1,22.8c0.1,9.6,0.1,15.7,0.2,18.1h-10.1c0-2.5,0.1-7.2,0.2-14.3
		c0.1-7.1,0.1-15.8,0.1-26.3c0-2,0-5.8,0-11.3c0-5.5-0.1-15.6-0.3-30.2c0.4,0,2.5,0,6.1-0.1c3.7-0.1,7.1-0.1,10.2-0.1
		c3.6,0,7,0.2,10.4,0.6c3.3,0.4,6.6,1.3,9.8,2.6c4,1.7,7.2,4.2,9.6,7.6c2.4,3.3,3.6,7.2,3.6,11.7c0,5.8-1.8,10.6-5.4,14.5
		c-3.6,3.9-6.9,6.7-10.1,8.6v0.3c5.6,6.5,11.8,13.3,18.4,20.3C468.3,105.2,471.9,108.9,472.4,109.4z"/>
	<path class="st0" d="M546.5,36.2c-0.3,0.4-4.4,5.5-12.1,15.3c-7.8,9.8-14,17.7-18.8,23.7c-0.1,7.4-0.1,15.2,0,23.3
		c0.1,8.1,0.2,13.4,0.2,15.9h-10.1c0.1-2.5,0.2-7.8,0.2-16.1c0.1-8.3,0.1-15.7,0.1-22.4c-5-6.6-11.2-14.5-18.5-23.9
		c-7.4-9.3-11.3-14.4-11.9-15.1l8-6.1c0.5,0.7,3.7,5,9.6,12.9c5.9,7.9,11.8,15.7,17.8,23.5h0.1c5.8-7.4,11.8-15.2,18.1-23.4
		c6.3-8.2,9.6-12.5,10-13L546.5,36.2z"/>
	<path class="st0" d="M628.3,32.2c0,7.9,0,14.3-0.1,19.5c-0.1,5.1-0.1,9.6-0.1,13.4c0,4.7,0,8.6,0,11.9c0,3.3,0,6.1,0,8.6
		c0,4.7-0.7,8.9-2.1,12.5c-1.4,3.6-3.5,6.8-6.4,9.5c-2.9,2.7-6.4,4.8-10.5,6.3s-9,2.3-14.5,2.3c-5.5,0-10.3-0.8-14.5-2.3
		c-4.2-1.5-7.7-3.6-10.6-6.4c-2.9-2.7-5-5.9-6.4-9.5c-1.4-3.6-2.1-7.8-2.1-12.5c0-2.4,0-5.3,0-8.6c0-3.3,0-7.3,0-11.9
		c0-3.8,0-8.3-0.1-13.4c-0.1-5.1-0.1-11.6-0.1-19.5h10.1c0,1-0.1,4.5-0.2,10.5s-0.1,13.8-0.1,23.5c0,2.9,0,6,0,9.1
		c0,3.1,0,6.4,0,9.7c0,7.5,2.1,13.2,6.4,17s10.1,5.8,17.4,5.8c7.9,0,13.9-1.8,17.8-5.5c4-3.7,5.9-9.4,5.9-17.3c0-3.3,0-6.5,0-9.7
		c0-3.1,0-6.2,0-9.1c0-9.7,0-17.6-0.1-23.8c-0.1-6.2-0.1-9.5-0.1-10.1H628.3z"/>
	<path class="st0" d="M755.4,113.1l-10,2l-12.7-68.8l-0.1-0.1c-1.6,3.3-5.1,11-10.6,23.1c-5.5,12.1-10.8,24.2-16,36.3h-8.5
		c-4.9-11.2-10.2-23.4-16.1-36.5s-9.3-20.7-10.4-22.9l-0.1,0c-0.2,1.1-1.9,8.9-5,23.5s-6,29.7-8.8,45.2l-9.4-1.7
		c4.1-17.6,7.9-35.1,11.5-52.4c3.6-17.3,5.5-26.7,5.8-28.2l9.8-1.4c0.4,0.9,3.3,7.5,8.7,19.7c5.4,12.2,11.7,26.3,19,42.3h0.4
		c5.6-12.5,11.4-25.8,17.7-40c6.2-14.1,9.4-21.5,9.7-22l9.3,0.7c0.1,0.9,1.8,9.9,5.1,26.9C747.8,76,751.4,94,755.4,113.1z"/>
</g>
<g>
	<path class="st0" d="M357.7,27.7l9.3,30c0.3,0.8,1,1.4,1.9,1.4l31.9-0.6c1.9,0,2.7,2.5,1.1,3.6l-26.2,17.9c-0.7,0.5-1,1.4-0.7,2.3
		l10.5,29.6c0.6,1.8-1.5,3.4-3,2.2L357,95c-0.7-0.5-1.6-0.5-2.3,0l-25.5,19c-1.6,1.2-3.7-0.4-3-2.2l10.5-29.6c0.3-0.8,0-1.8-0.7-2.3
		l-26.2-17.9c-1.6-1.1-0.8-3.6,1.1-3.6l31.9,0.6c0.9,0,1.7-0.5,1.9-1.4l9.3-30C354.5,25.9,357.2,25.9,357.7,27.7L357.7,27.7z"/>
	<path class="st1" d="M349.7,59.3c-0.1,0-0.2,0-0.3,0c-0.5-0.2-0.8-0.7-0.7-1.2l3.7-12c0.2-0.5,0.7-0.8,1.2-0.7
		c0.5,0.2,0.8,0.7,0.7,1.2l-3.7,12C350.6,59.1,350.2,59.3,349.7,59.3L349.7,59.3z"/>
	<path class="st2" d="M402,62.1l-26.2,17.9c-0.7,0.5-1,1.4-0.7,2.2l10.5,29.6c0.6,1.8-1.5,3.4-3,2.2L357,95c-0.7-0.5-1.6-0.5-2.3,0
		l-25.5,19c-1.6,1.1-3.7-0.4-3-2.2l2.5-7c10.9-4.1,36.2-16.4,48.2-45.8l24.1-0.5C402.8,58.5,403.6,61,402,62.1L402,62.1z"/>
</g>
</svg>
