<?xml version="1.0" encoding="utf-8"?>
<!-- Generator: Adobe Illustrator 28.3.0, SVG Export Plug-In . SVG Version: 6.00 Build 0)  -->
<svg version="1.1" id="Layer_1" xmlns="http://www.w3.org/2000/svg" xmlns:xlink="http://www.w3.org/1999/xlink" x="0px" y="0px"
	 viewBox="0 0 542.1 227" style="enable-background:new 0 0 542.1 227;" xml:space="preserve">
<style type="text/css">
	.st0{fill-rule:evenodd;clip-rule:evenodd;fill:#FFFFFF;}
	.st1{fill:#FFFFFF;}
</style>
<g>
	
		<rect x="487.7" y="53.3" transform="matrix(0.7071 -0.7071 0.7071 0.7071 97.0785 379.9193)" class="st0" width="38.9" height="38.9"/>
</g>
<g>
	<polygon class="st1" points="129.8,72.9 114.3,72.9 112.7,74.3 96.8,128.9 96.7,128.9 78.9,74.3 77.2,72.9 61,72.9 59.4,74.3 
		41.7,128.6 41.4,128.4 41.3,128.3 25.4,74.3 23.8,72.9 8,72.9 6.9,74.3 31.8,151.2 33.5,152.7 49.1,152.7 50.8,151.2 68.5,96.2 
		68.9,96.2 86.8,151.2 88.5,152.7 104.3,152.7 106,151.2 130.8,74.3 	"/>
	<polygon class="st1" points="305.2,72.9 289.6,72.9 287.8,74.3 266.1,131.1 265.9,131.2 244.3,74.3 242.6,72.9 226.7,72.9 
		225.6,74.3 256.7,151.2 258.6,152.7 272.9,152.7 274.8,151.2 306.2,74.3 	"/>
	<path class="st1" d="M385.6,117.1l1.5-1.4v-2.3c0-12.5-3.5-23.2-10.5-30.7s-16.4-11.3-28-11.3c-11.1,0-20.5,4.2-27.7,12.3
		s-10.7,17.9-10.7,29.1c0,11.9,3.7,21.8,11.1,29.6c7.4,7.8,17.1,11.8,28.9,11.8c8.5,0,15.8-2,21.7-6.2c5.9-4.1,12.1-10.7,14.2-19.9
		l-1.1-1.5h-14.6l-2,1.5c-3.6,7.3-9.2,10.7-18.4,10.7c-6,0-11.3-2.1-15.8-6.3c-4.3-4-6.7-8.7-7.3-15.5L385.6,117.1z M327.9,102.9
		c2.5-9.4,10.4-16.4,20.8-16.4c13.7,0,19.3,9.7,21,16.4H327.9z"/>
	<path class="st1" d="M200.3,72.9l-1.5,1.5v7.9l-0.3,0.3c-2-2.6-4.8-5-8-6.9c-0.7-0.4-1.5-0.8-2.3-1.2c-4.4-2.1-9.3-3.1-14.7-3.1
		c-10,0-18.8,4.1-26.1,12c-7.3,7.9-10.9,17.8-10.9,29.5s3.6,21.6,10.9,29.5c7.3,7.9,16.1,12,26.1,12c5.4,0,10.2-1,14.6-3.1
		c0.8-0.4,1.7-0.8,2.5-1.3c3.1-1.9,5.8-4.1,7.8-6.6c0.1-0.1,0.4,0.1,0.5,0v8.2l1.5,1.5h13.3l1.5-1.5V74.3l-1.5-1.5L200.3,72.9
		L200.3,72.9z M192.1,131.8c-4.5,4.8-9.8,7.1-16.3,7.1c-6.3,0-10.9-2.3-15.5-7.2c-4.6-4.8-6.8-11.1-6.8-19.1
		c0-7.9,2.3-14.3,6.8-19.1c4.6-4.8,9.1-7.2,15.5-7.2s11.8,2.3,16.3,7.1c2.9,3.1,4.9,6.9,6,11.4v15.4
		C197.1,125,195,128.8,192.1,131.8z"/>
	<path class="st1" d="M441.8,106.5c0,0-8.7-1.8-15.9-3.4c-6.6-1.5-9.9-3.4-9.9-8.1c0-5,4.8-9.1,15-9.1c10,0,15.6,4.5,15.6,8.4
		l1.7,1.5h14.6l1.1-1.4c0-10.4-9-22.9-32.6-22.9c-24.6,0-32.3,14.5-32.3,23.8c0,7.8,2.8,17,21.7,21.4c0,0,9,2,16.2,3.6
		c8.2,1.8,11.6,4.7,11.6,9.4c0,4.4-4.4,9.6-15.7,9.6c-10.5,0-16.9-5.1-17.2-11l-1.8-1.5H399l-1.1,1.5c1.3,13.4,11.2,25.9,34.9,25.9
		c26.8,0,32.3-16.4,32.3-25C465.1,117.7,458.5,110.2,441.8,106.5z"/>
</g>
</svg>
